<svg id="svg" version="1.1" xmlns="http://www.w3.org/2000/svg" xmlns:xlink="http://www.w3.org/1999/xlink" width="400" height="400" viewBox="0, 0, 400,400"><g id="svgg"><path id="path0" d="M91.100 145.216 C 71.130 145.852,62.302 147.086,54.400 150.347 C 44.042 154.621,35.920 162.889,32.981 172.150 C 32.620 173.290,32.439 173.600,32.135 173.600 C 31.923 173.600,30.253 173.456,28.425 173.281 C 20.700 172.539,15.727 175.212,12.793 181.684 C 8.907 190.253,15.004 200.811,24.343 201.687 C 24.979 201.747,27.120 201.943,29.100 202.123 C 33.370 202.511,33.119 202.360,32.372 204.100 C 23.605 224.533,28.453 247.766,44.100 260.300 C 66.954 278.606,118.163 281.272,149.200 265.770 C 169.676 255.544,182.070 240.723,189.483 217.600 C 193.377 205.452,196.793 201.023,201.512 202.003 C 204.109 202.542,204.676 204.829,206.000 220.100 C 206.944 230.980,207.272 232.374,210.386 238.700 C 225.205 268.809,275.716 285.343,313.900 272.584 C 335.960 265.213,351.613 240.366,354.461 208.200 L 354.700 205.500 360.500 205.384 C 367.201 205.251,368.074 205.065,370.926 203.157 C 379.070 197.710,378.592 183.311,370.110 178.584 C 367.213 176.968,367.010 176.937,358.729 176.812 L 351.357 176.700 350.713 174.900 C 345.137 159.311,333.760 150.797,315.200 148.323 C 309.546 147.569,308.463 147.535,288.900 147.486 C 278.230 147.459,255.865 147.337,239.200 147.215 C 163.860 146.661,161.368 146.625,134.100 145.700 C 113.624 145.006,101.861 144.873,91.100 145.216 M116.000 153.643 C 120.335 154.056,263.309 154.016,268.300 153.600 C 272.790 153.226,289.147 153.219,297.800 153.588 C 301.045 153.726,307.345 153.901,311.800 153.975 C 320.201 154.115,320.288 154.125,321.300 154.993 C 321.520 155.182,322.420 155.584,323.300 155.886 C 333.978 159.555,340.840 168.120,344.015 181.739 L 344.676 184.578 353.588 184.639 C 363.575 184.707,363.292 184.668,364.674 186.197 C 366.064 187.736,365.963 190.485,364.467 191.839 C 363.229 192.960,362.948 192.991,354.063 192.996 L 345.826 193.000 345.918 197.050 C 345.968 199.278,346.046 201.640,346.091 202.300 C 346.525 208.710,344.986 231.755,343.697 238.130 C 338.395 264.355,307.627 275.101,263.595 266.106 C 228.858 259.009,204.122 230.583,207.811 202.000 C 208.488 196.754,207.960 194.101,205.504 190.407 C 196.285 176.539,173.969 184.995,176.228 201.500 C 179.354 224.331,163.102 249.297,137.712 260.669 C 116.855 270.010,82.520 271.887,63.900 264.703 C 48.254 258.666,41.173 248.815,39.314 230.500 C 38.232 219.845,38.112 217.278,38.106 204.750 L 38.100 193.000 30.700 192.996 C 22.413 192.991,22.324 192.977,21.069 191.549 C 19.277 189.507,19.905 186.372,22.346 185.170 C 23.292 184.704,23.366 184.700,31.325 184.640 L 39.349 184.579 39.695 182.840 C 43.313 164.614,55.287 153.998,72.226 154.000 C 73.697 154.000,78.770 153.865,83.500 153.698 C 96.188 153.252,96.217 153.252,105.100 153.321 C 109.702 153.357,114.485 153.498,116.000 153.643 M68.100 162.540 C 52.543 164.627,45.428 181.731,46.424 214.652 C 47.266 242.470,51.710 251.719,66.587 256.604 C 77.619 260.226,108.484 260.215,124.300 256.583 C 145.172 251.790,162.612 236.145,167.087 218.200 C 171.077 202.202,164.389 183.735,150.850 173.363 L 148.999 171.946 147.950 172.922 C 146.995 173.808,117.430 202.213,82.100 236.185 C 74.034 243.941,68.021 249.573,67.628 249.739 C 64.675 250.989,60.993 247.995,61.800 244.999 C 62.141 243.732,62.299 243.575,86.600 220.259 C 125.132 183.290,141.297 167.744,141.356 167.599 C 141.417 167.452,138.922 166.380,136.258 165.409 C 134.133 164.634,130.376 163.689,127.801 163.281 L 125.766 162.959 123.833 164.842 C 117.558 170.955,61.609 224.611,60.958 225.139 C 58.245 227.342,54.101 225.385,54.120 221.909 C 54.129 220.053,51.012 223.201,87.700 187.996 C 100.130 176.068,111.200 165.431,112.300 164.359 L 114.300 162.410 91.500 162.435 C 78.960 162.449,68.430 162.496,68.100 162.540 M150.085 162.662 C 159.084 168.230,165.380 174.826,170.405 183.950 C 171.871 186.612,171.567 186.489,172.622 184.850 C 181.406 171.203,203.032 171.093,211.849 184.650 C 212.621 185.837,212.676 185.833,213.320 184.550 C 217.353 176.504,225.114 168.067,232.728 163.450 L 234.459 162.400 192.080 162.412 C 159.206 162.421,149.786 162.477,150.085 162.662 M257.291 162.791 C 242.262 165.175,230.466 172.815,222.849 185.100 C 203.458 216.373,226.437 252.920,268.800 258.181 C 278.722 259.414,300.787 259.577,308.700 258.477 C 327.125 255.915,334.494 248.042,336.487 228.790 C 339.065 203.887,337.816 187.352,332.470 175.621 L 331.788 174.124 330.544 175.331 C 329.860 175.994,322.370 183.190,313.900 191.322 C 295.987 208.518,264.949 238.334,258.334 244.700 C 253.396 249.452,252.986 249.783,251.750 250.009 C 249.444 250.431,246.800 248.258,246.800 245.941 C 246.800 244.250,246.957 244.073,257.173 234.255 C 262.526 229.110,280.344 211.994,296.769 196.220 L 326.633 167.541 326.066 167.070 C 321.981 163.671,318.639 162.575,312.000 162.458 L 307.500 162.379 277.200 191.504 C 239.206 228.024,241.656 225.716,240.594 226.002 C 237.913 226.724,234.987 224.287,235.250 221.552 C 235.404 219.945,231.610 223.730,270.500 186.389 C 282.820 174.560,293.485 164.327,294.200 163.648 L 295.500 162.414 277.500 162.427 C 261.367 162.439,259.271 162.477,257.291 162.791 " stroke="none" fill="#fbfbfb" fill-rule="evenodd"></path><path id="path1" d="M0.000 200.000 L 0.000 400.000 200.000 400.000 L 400.000 400.000 400.000 200.000 L 400.000 0.000 200.000 0.000 L 0.000 0.000 0.000 200.000 M122.709 145.204 C 126.664 145.316,133.590 145.538,138.100 145.696 C 142.610 145.855,151.475 146.122,157.800 146.290 C 170.408 146.625,246.666 147.238,284.100 147.305 C 308.366 147.349,310.016 147.400,315.948 148.293 C 334.217 151.044,345.125 159.277,350.712 174.531 L 351.456 176.563 358.678 176.640 L 365.900 176.718 367.500 177.271 C 380.255 181.675,380.091 201.064,367.266 205.043 C 366.049 205.421,365.296 205.476,360.366 205.550 L 354.831 205.633 354.699 207.166 C 352.203 236.253,339.049 260.605,320.828 269.870 C 303.865 278.495,276.240 279.228,252.939 271.672 C 229.747 264.150,213.855 250.522,207.840 232.996 C 206.754 229.832,206.561 228.587,205.901 220.500 C 204.532 203.729,203.855 201.649,199.899 202.058 C 195.917 202.469,193.487 206.114,189.705 217.351 C 183.901 234.597,177.837 244.511,167.600 253.489 C 149.892 269.021,129.223 275.826,99.700 275.844 C 63.014 275.868,37.659 263.130,30.402 241.030 C 26.735 229.864,27.451 215.342,32.221 204.120 C 32.543 203.362,32.781 202.714,32.749 202.682 C 32.690 202.623,28.024 202.141,25.200 201.902 C 12.031 200.788,6.787 185.510,16.469 176.467 C 19.857 173.304,22.459 172.598,28.640 173.170 L 32.379 173.515 33.006 171.722 C 36.698 161.149,45.644 152.984,57.989 148.922 C 64.805 146.679,71.030 145.928,89.400 145.133 C 93.029 144.976,116.434 145.026,122.709 145.204 M90.000 153.595 C 87.635 153.677,81.920 153.855,77.300 153.989 C 70.796 154.178,68.341 154.323,66.424 154.632 C 52.289 156.910,43.114 166.686,39.803 183.000 L 39.458 184.700 31.279 184.800 C 23.254 184.898,23.084 184.909,22.250 185.354 C 19.691 186.721,19.503 190.163,21.881 192.088 L 22.637 192.700 30.528 192.757 L 38.419 192.813 38.312 195.257 C 38.031 201.733,38.011 204.425,38.198 210.958 C 38.597 224.907,39.778 236.458,41.330 241.570 C 48.058 263.745,73.514 273.003,112.300 267.381 C 133.174 264.356,147.637 257.579,159.707 245.169 C 172.048 232.479,178.480 215.019,176.016 200.900 C 175.173 196.073,178.356 189.230,182.876 186.151 C 194.292 178.374,209.975 187.424,208.087 200.700 C 203.877 230.308,228.366 258.869,264.156 266.091 C 304.606 274.254,334.800 265.324,342.266 242.991 C 344.740 235.591,346.444 214.542,345.868 198.500 C 345.762 195.530,345.708 193.033,345.749 192.950 C 345.790 192.868,349.576 192.798,354.162 192.796 C 361.819 192.792,362.566 192.761,363.308 192.424 C 365.918 191.239,366.352 187.804,364.137 185.859 C 362.975 184.839,362.598 184.802,353.258 184.801 L 344.615 184.800 344.428 184.050 C 344.326 183.638,344.045 182.445,343.804 181.400 C 340.765 168.194,333.785 159.655,322.954 155.894 C 322.214 155.637,321.276 155.173,320.870 154.863 L 320.131 154.300 313.123 154.168 C 309.269 154.095,303.187 153.918,299.607 153.774 C 290.313 153.401,271.859 153.415,267.500 153.800 C 262.665 154.227,120.997 154.255,116.900 153.830 C 113.849 153.514,96.653 153.364,90.000 153.595 M114.400 162.367 C 114.400 162.459,112.486 164.372,110.147 166.617 C 107.808 168.863,96.895 179.337,85.897 189.893 C 51.484 222.921,54.061 220.288,54.247 222.223 C 54.526 225.123,58.207 227.011,60.441 225.400 C 61.035 224.971,116.865 171.475,123.420 165.053 L 125.740 162.780 128.120 163.190 C 132.272 163.903,135.981 165.014,140.148 166.792 C 140.892 167.109,141.500 167.443,141.500 167.534 C 141.500 167.695,129.869 178.904,84.400 222.564 C 70.102 236.293,62.546 243.684,62.250 244.232 C 60.618 247.246,64.255 251.056,67.426 249.653 C 68.085 249.362,72.413 245.321,84.207 233.986 C 113.139 206.178,146.279 174.335,147.641 173.033 L 148.983 171.751 151.088 173.400 C 169.198 187.582,173.662 212.741,161.395 231.500 C 150.462 248.219,132.421 257.452,107.700 258.983 C 64.279 261.671,50.501 255.196,47.513 230.700 C 45.864 217.180,45.808 195.875,47.407 190.000 C 47.512 189.615,47.598 188.996,47.599 188.624 C 47.601 187.546,48.563 183.530,49.512 180.639 C 52.991 170.037,58.932 164.110,67.700 162.494 C 69.322 162.195,114.400 162.073,114.400 162.367 M234.598 162.350 C 234.598 162.433,234.215 162.716,233.748 162.981 C 226.029 167.357,218.584 175.169,213.808 183.902 L 212.649 186.022 211.486 184.361 C 202.202 171.102,181.692 171.436,172.678 184.992 C 171.603 186.608,171.611 186.609,170.701 184.802 C 166.471 176.401,158.607 167.844,151.113 163.486 C 150.180 162.944,149.413 162.433,149.409 162.350 C 149.404 162.268,168.570 162.200,192.000 162.200 C 215.430 162.200,234.599 162.268,234.598 162.350 M295.600 162.383 C 295.600 162.484,295.212 162.911,294.738 163.333 C 294.041 163.952,255.262 201.168,240.001 215.864 C 235.863 219.848,235.403 220.448,235.401 221.858 C 235.398 224.758,238.516 226.817,241.100 225.621 C 241.633 225.374,252.865 214.709,274.700 193.717 L 307.500 162.183 311.900 162.271 C 318.516 162.402,322.258 163.648,326.257 167.052 L 326.813 167.525 324.757 169.514 C 323.625 170.608,317.120 176.859,310.300 183.406 C 256.047 235.480,247.435 243.810,247.223 244.420 C 246.487 246.532,247.441 248.604,249.600 249.583 C 251.784 250.574,252.434 250.216,257.745 245.100 C 260.143 242.790,277.044 226.555,295.303 209.021 C 313.561 191.488,329.240 176.418,330.144 175.532 L 331.788 173.921 332.702 175.850 C 338.025 187.088,339.267 205.558,336.404 230.915 C 334.378 248.856,325.505 257.053,306.123 258.892 C 296.659 259.789,276.163 259.369,266.986 258.089 C 250.449 255.783,235.976 248.095,226.154 236.400 C 203.160 209.023,220.552 168.212,257.600 162.613 C 260.374 162.194,295.600 161.981,295.600 162.383 " stroke="none" fill="#040404" fill-rule="evenodd"></path><path id="path2" d="M297.950 147.345 C 298.308 147.389,298.893 147.389,299.250 147.345 C 299.608 147.300,299.315 147.264,298.600 147.264 C 297.885 147.264,297.593 147.300,297.950 147.345 M156.434 154.150 C 175.977 154.178,208.017 154.178,227.634 154.150 C 247.250 154.122,231.260 154.099,192.100 154.099 C 152.940 154.099,136.890 154.122,156.434 154.150 M315.358 154.148 C 316.050 154.187,317.130 154.187,317.758 154.148 C 318.386 154.108,317.820 154.076,316.500 154.076 C 315.180 154.077,314.666 154.109,315.358 154.148 M354.250 176.750 C 355.873 176.783,358.528 176.783,360.150 176.750 C 361.773 176.716,360.445 176.688,357.200 176.688 C 353.955 176.688,352.628 176.716,354.250 176.750 " stroke="none" fill="#7c7c7c" fill-rule="evenodd"></path><path id="path3" d="M184.150 146.746 C 184.618 146.789,185.383 146.789,185.850 146.746 C 186.317 146.704,185.935 146.670,185.000 146.670 C 184.065 146.670,183.683 146.704,184.150 146.746 M210.155 146.947 C 210.626 146.989,211.346 146.988,211.755 146.945 C 212.165 146.902,211.780 146.868,210.900 146.869 C 210.020 146.869,209.685 146.904,210.155 146.947 M236.650 147.146 C 237.063 147.189,237.738 147.189,238.150 147.146 C 238.563 147.103,238.225 147.067,237.400 147.067 C 236.575 147.067,236.238 147.103,236.650 147.146 M263.155 147.347 C 263.626 147.389,264.346 147.388,264.755 147.345 C 265.165 147.302,264.780 147.268,263.900 147.269 C 263.020 147.269,262.685 147.304,263.155 147.347 M294.450 147.343 C 294.752 147.389,295.248 147.389,295.550 147.343 C 295.853 147.297,295.605 147.260,295.000 147.260 C 294.395 147.260,294.147 147.297,294.450 147.343 M101.450 153.343 C 101.752 153.389,102.248 153.389,102.550 153.343 C 102.853 153.297,102.605 153.260,102.000 153.260 C 101.395 153.260,101.148 153.297,101.450 153.343 M104.650 153.343 C 104.953 153.389,105.447 153.389,105.750 153.343 C 106.053 153.297,105.805 153.260,105.200 153.260 C 104.595 153.260,104.347 153.297,104.650 153.343 M278.453 153.344 C 278.757 153.389,279.207 153.388,279.453 153.341 C 279.699 153.293,279.450 153.256,278.900 153.257 C 278.350 153.259,278.149 153.298,278.453 153.344 M281.450 153.343 C 281.752 153.389,282.248 153.389,282.550 153.343 C 282.853 153.297,282.605 153.260,282.000 153.260 C 281.395 153.260,281.147 153.297,281.450 153.343 M71.450 154.143 C 71.752 154.189,72.248 154.189,72.550 154.143 C 72.853 154.097,72.605 154.060,72.000 154.060 C 71.395 154.060,71.148 154.097,71.450 154.143 M311.450 154.143 C 311.753 154.189,312.248 154.189,312.550 154.143 C 312.853 154.097,312.605 154.060,312.000 154.060 C 311.395 154.060,311.148 154.097,311.450 154.143 M341.400 159.700 C 341.773 160.085,342.123 160.400,342.178 160.400 C 342.233 160.400,341.973 160.085,341.600 159.700 C 341.227 159.315,340.877 159.000,340.822 159.000 C 340.767 159.000,341.027 159.315,341.400 159.700 M337.846 207.000 C 337.846 207.385,337.888 207.543,337.938 207.350 C 337.988 207.157,337.988 206.843,337.938 206.650 C 337.888 206.457,337.846 206.615,337.846 207.000 M38.054 210.400 C 38.054 210.895,38.093 211.097,38.141 210.850 C 38.189 210.603,38.189 210.197,38.141 209.950 C 38.093 209.703,38.054 209.905,38.054 210.400 M28.050 225.900 C 28.053 226.340,28.094 226.496,28.141 226.248 C 28.189 225.999,28.187 225.639,28.137 225.448 C 28.087 225.256,28.048 225.460,28.050 225.900 " stroke="none" fill="#535353" fill-rule="evenodd"></path><path id="path4" d="M94.154 145.145 C 94.513 145.189,95.053 145.189,95.354 145.143 C 95.654 145.097,95.360 145.061,94.700 145.062 C 94.040 145.063,93.794 145.100,94.154 145.145 M112.746 145.144 C 113.101 145.189,113.731 145.189,114.146 145.146 C 114.560 145.103,114.270 145.067,113.500 145.066 C 112.730 145.065,112.390 145.100,112.746 145.144 M87.752 145.341 C 88.001 145.389,88.361 145.387,88.552 145.337 C 88.744 145.287,88.540 145.248,88.100 145.250 C 87.660 145.253,87.504 145.294,87.752 145.341 M121.653 145.344 C 121.957 145.389,122.407 145.388,122.653 145.341 C 122.899 145.293,122.650 145.256,122.100 145.257 C 121.550 145.259,121.349 145.298,121.653 145.344 M128.653 145.544 C 128.957 145.589,129.407 145.588,129.653 145.541 C 129.899 145.493,129.650 145.456,129.100 145.457 C 128.550 145.459,128.349 145.498,128.653 145.544 M134.752 145.741 C 135.001 145.789,135.361 145.787,135.552 145.737 C 135.744 145.687,135.540 145.648,135.100 145.650 C 134.660 145.653,134.504 145.694,134.752 145.741 M140.552 145.941 C 140.801 145.989,141.161 145.987,141.352 145.937 C 141.544 145.887,141.340 145.848,140.900 145.850 C 140.460 145.853,140.304 145.894,140.552 145.941 M146.352 146.141 C 146.601 146.189,146.961 146.187,147.152 146.137 C 147.344 146.087,147.140 146.048,146.700 146.050 C 146.260 146.053,146.104 146.094,146.352 146.141 M153.053 146.344 C 153.357 146.389,153.807 146.388,154.053 146.341 C 154.299 146.293,154.050 146.256,153.500 146.257 C 152.950 146.259,152.749 146.298,153.053 146.344 M159.950 146.541 C 160.197 146.589,160.603 146.589,160.850 146.541 C 161.097 146.493,160.895 146.454,160.400 146.454 C 159.905 146.454,159.703 146.493,159.950 146.541 M174.660 146.749 C 175.739 146.785,177.449 146.785,178.460 146.749 C 179.472 146.713,178.590 146.683,176.500 146.683 C 174.410 146.684,173.582 146.713,174.660 146.749 M199.062 146.950 C 200.471 146.984,202.721 146.984,204.062 146.949 C 205.403 146.915,204.250 146.887,201.500 146.887 C 198.750 146.887,197.653 146.915,199.062 146.950 M227.860 147.149 C 228.828 147.186,230.358 147.186,231.260 147.149 C 232.162 147.112,231.370 147.082,229.500 147.082 C 227.630 147.082,226.892 147.112,227.860 147.149 M254.250 147.349 C 255.213 147.386,256.788 147.386,257.750 147.349 C 258.713 147.312,257.925 147.282,256.000 147.282 C 254.075 147.282,253.288 147.312,254.250 147.349 M280.759 147.549 C 281.672 147.586,283.112 147.586,283.959 147.548 C 284.807 147.511,284.060 147.481,282.300 147.481 C 280.540 147.481,279.847 147.512,280.759 147.549 M305.453 147.544 C 305.757 147.589,306.207 147.588,306.453 147.541 C 306.699 147.493,306.450 147.456,305.900 147.457 C 305.350 147.459,305.149 147.498,305.453 147.544 M97.350 153.345 C 97.708 153.389,98.293 153.389,98.650 153.345 C 99.008 153.300,98.715 153.264,98.000 153.264 C 97.285 153.264,96.993 153.300,97.350 153.345 M108.350 153.341 C 108.597 153.389,109.003 153.389,109.250 153.341 C 109.498 153.293,109.295 153.254,108.800 153.254 C 108.305 153.254,108.103 153.293,108.350 153.341 M274.952 153.341 C 275.201 153.389,275.561 153.387,275.752 153.337 C 275.944 153.287,275.740 153.248,275.300 153.250 C 274.860 153.253,274.704 153.294,274.952 153.341 M285.554 153.345 C 285.913 153.389,286.453 153.389,286.754 153.343 C 287.054 153.297,286.760 153.261,286.100 153.262 C 285.440 153.263,285.194 153.300,285.554 153.345 M89.352 153.541 C 89.601 153.589,89.961 153.587,90.152 153.537 C 90.344 153.487,90.140 153.448,89.700 153.450 C 89.260 153.453,89.104 153.494,89.352 153.541 M293.950 153.541 C 294.197 153.589,294.603 153.589,294.850 153.541 C 295.098 153.493,294.895 153.454,294.400 153.454 C 293.905 153.454,293.703 153.493,293.950 153.541 M83.552 153.741 C 83.801 153.789,84.161 153.787,84.352 153.737 C 84.544 153.687,84.340 153.648,83.900 153.650 C 83.460 153.653,83.304 153.694,83.552 153.741 M299.752 153.741 C 300.001 153.789,300.361 153.787,300.552 153.737 C 300.744 153.687,300.540 153.648,300.100 153.650 C 299.660 153.653,299.504 153.694,299.752 153.741 M77.750 153.941 C 77.998 153.989,78.403 153.989,78.650 153.941 C 78.898 153.893,78.695 153.854,78.200 153.854 C 77.705 153.854,77.502 153.893,77.750 153.941 M305.350 153.941 C 305.598 153.989,306.002 153.989,306.250 153.941 C 306.498 153.893,306.295 153.854,305.800 153.854 C 305.305 153.854,305.103 153.893,305.350 153.941 M305.389 164.350 L 304.700 165.100 305.450 164.411 C 306.148 163.769,306.292 163.600,306.139 163.600 C 306.106 163.600,305.768 163.938,305.389 164.350 M292.589 165.150 L 291.900 165.900 292.650 165.211 C 293.348 164.569,293.492 164.400,293.339 164.400 C 293.306 164.400,292.968 164.738,292.589 165.150 M122.589 165.950 L 121.900 166.700 122.650 166.011 C 123.348 165.369,123.492 165.200,123.339 165.200 C 123.306 165.200,122.968 165.538,122.589 165.950 M109.691 166.850 L 108.900 167.700 109.750 166.909 C 110.218 166.475,110.600 166.092,110.600 166.059 C 110.600 165.908,110.426 166.060,109.691 166.850 M300.389 169.150 L 299.700 169.900 300.450 169.211 C 301.148 168.569,301.292 168.400,301.139 168.400 C 301.106 168.400,300.768 168.738,300.389 169.150 M139.589 169.350 L 138.900 170.100 139.650 169.411 C 140.348 168.769,140.492 168.600,140.339 168.600 C 140.306 168.600,139.968 168.938,139.589 169.350 M287.389 170.150 L 286.700 170.900 287.450 170.211 C 288.148 169.569,288.292 169.400,288.139 169.400 C 288.106 169.400,287.768 169.738,287.389 170.150 M160.500 170.800 C 161.042 171.350,161.530 171.800,161.585 171.800 C 161.640 171.800,161.242 171.350,160.700 170.800 C 160.158 170.250,159.670 169.800,159.615 169.800 C 159.560 169.800,159.958 170.250,160.500 170.800 M117.491 170.850 L 116.700 171.700 117.550 170.909 C 118.017 170.475,118.400 170.092,118.400 170.059 C 118.400 169.908,118.226 170.060,117.491 170.850 M104.589 171.750 L 103.900 172.500 104.650 171.811 C 105.348 171.169,105.492 171.000,105.339 171.000 C 105.306 171.000,104.968 171.338,104.589 171.750 M321.389 172.550 L 320.700 173.300 321.450 172.611 C 321.863 172.232,322.200 171.894,322.200 171.861 C 322.200 171.708,322.031 171.852,321.389 172.550 M147.789 172.950 L 147.100 173.700 147.850 173.011 C 148.263 172.632,148.600 172.294,148.600 172.261 C 148.600 172.108,148.431 172.252,147.789 172.950 M295.389 173.950 L 294.700 174.700 295.450 174.011 C 296.148 173.369,296.292 173.200,296.139 173.200 C 296.106 173.200,295.768 173.538,295.389 173.950 M134.589 174.150 L 133.900 174.900 134.650 174.211 C 135.348 173.569,135.492 173.400,135.339 173.400 C 135.306 173.400,134.968 173.738,134.589 174.150 M282.389 174.950 L 281.700 175.700 282.450 175.011 C 283.148 174.369,283.292 174.200,283.139 174.200 C 283.106 174.200,282.768 174.538,282.389 174.950 M112.491 175.650 L 111.700 176.500 112.550 175.709 C 113.340 174.974,113.492 174.800,113.341 174.800 C 113.308 174.800,112.925 175.183,112.491 175.650 M329.789 175.950 L 329.100 176.700 329.850 176.011 C 330.548 175.369,330.692 175.200,330.539 175.200 C 330.506 175.200,330.168 175.538,329.789 175.950 M99.589 176.550 L 98.900 177.300 99.650 176.611 C 100.348 175.969,100.492 175.800,100.339 175.800 C 100.306 175.800,99.968 176.138,99.589 176.550 M15.891 177.050 L 15.100 177.900 15.950 177.109 C 16.418 176.675,16.800 176.292,16.800 176.259 C 16.800 176.108,16.626 176.260,15.891 177.050 M316.389 177.350 L 315.700 178.100 316.450 177.411 C 317.148 176.769,317.292 176.600,317.139 176.600 C 317.106 176.600,316.768 176.938,316.389 177.350 M142.589 177.950 L 141.900 178.700 142.650 178.011 C 143.063 177.632,143.400 177.294,143.400 177.261 C 143.400 177.108,143.231 177.252,142.589 177.950 M290.389 178.750 L 289.700 179.500 290.450 178.811 C 291.148 178.169,291.292 178.000,291.139 178.000 C 291.106 178.000,290.768 178.338,290.389 178.750 M129.589 178.950 L 128.900 179.700 129.650 179.011 C 130.348 178.369,130.492 178.200,130.339 178.200 C 130.306 178.200,129.968 178.538,129.589 178.950 M277.189 179.950 L 276.500 180.700 277.250 180.011 C 277.948 179.369,278.092 179.200,277.939 179.200 C 277.906 179.200,277.568 179.538,277.189 179.950 M107.389 180.550 L 106.700 181.300 107.450 180.611 C 107.863 180.232,108.200 179.894,108.200 179.861 C 108.200 179.708,108.031 179.852,107.389 180.550 M324.691 180.850 L 323.900 181.700 324.750 180.909 C 325.540 180.174,325.692 180.000,325.541 180.000 C 325.508 180.000,325.125 180.383,324.691 180.850 M372.200 180.063 C 372.200 180.097,372.493 180.390,372.850 180.713 L 373.500 181.300 372.913 180.650 C 372.365 180.044,372.200 179.908,372.200 180.063 M94.389 181.550 L 93.700 182.300 94.450 181.611 C 95.148 180.969,95.292 180.800,95.139 180.800 C 95.106 180.800,94.768 181.138,94.389 181.550 M311.189 182.350 L 310.500 183.100 311.250 182.411 C 311.948 181.769,312.092 181.600,311.939 181.600 C 311.906 181.600,311.568 181.938,311.189 182.350 M137.389 182.950 L 136.700 183.700 137.450 183.011 C 138.148 182.369,138.292 182.200,138.139 182.200 C 138.106 182.200,137.768 182.538,137.389 182.950 M285.291 183.650 L 284.500 184.500 285.350 183.709 C 286.140 182.974,286.292 182.800,286.141 182.800 C 286.108 182.800,285.725 183.183,285.291 183.650 M124.389 183.950 L 123.700 184.700 124.450 184.011 C 124.863 183.632,125.200 183.294,125.200 183.261 C 125.200 183.108,125.031 183.252,124.389 183.950 M272.189 184.750 L 271.500 185.500 272.250 184.811 C 272.948 184.169,273.092 184.000,272.939 184.000 C 272.906 184.000,272.568 184.338,272.189 184.750 M27.737 184.750 C 29.847 184.782,33.357 184.782,35.537 184.750 C 37.717 184.717,35.990 184.691,31.700 184.691 C 27.410 184.691,25.627 184.717,27.737 184.750 M102.389 185.350 L 101.700 186.100 102.450 185.411 C 102.863 185.032,103.200 184.694,103.200 184.661 C 103.200 184.508,103.031 184.652,102.389 185.350 M348.864 184.750 C 351.263 184.782,355.133 184.782,357.464 184.750 C 359.794 184.718,357.830 184.692,353.100 184.692 C 348.370 184.692,346.464 184.718,348.864 184.750 M319.589 185.750 L 318.900 186.500 319.650 185.811 C 320.348 185.169,320.492 185.000,320.339 185.000 C 320.306 185.000,319.968 185.338,319.589 185.750 M89.389 186.350 L 88.700 187.100 89.450 186.411 C 90.148 185.769,90.292 185.600,90.139 185.600 C 90.106 185.600,89.768 185.938,89.389 186.350 M306.189 187.150 L 305.500 187.900 306.250 187.211 C 306.948 186.569,307.092 186.400,306.939 186.400 C 306.906 186.400,306.568 186.738,306.189 187.150 M132.189 187.950 L 131.500 188.700 132.250 188.011 C 132.948 187.369,133.092 187.200,132.939 187.200 C 132.906 187.200,132.568 187.538,132.189 187.950 M280.291 188.450 L 279.500 189.300 280.350 188.509 C 281.140 187.774,281.292 187.600,281.141 187.600 C 281.108 187.600,280.725 187.983,280.291 188.450 M119.389 188.750 L 118.700 189.500 119.450 188.811 C 120.148 188.169,120.292 188.000,120.139 188.000 C 120.106 188.000,119.768 188.338,119.389 188.750 M267.291 189.450 L 266.500 190.300 267.350 189.509 C 268.140 188.774,268.292 188.600,268.141 188.600 C 268.108 188.600,267.725 188.983,267.291 189.450 M97.389 190.150 L 96.700 190.900 97.450 190.211 C 98.148 189.569,98.292 189.400,98.139 189.400 C 98.106 189.400,97.768 189.738,97.389 190.150 M314.389 190.750 L 313.700 191.500 314.450 190.811 C 315.148 190.169,315.292 190.000,315.139 190.000 C 315.106 190.000,314.768 190.338,314.389 190.750 M84.389 191.150 L 83.700 191.900 84.450 191.211 C 85.148 190.569,85.292 190.400,85.139 190.400 C 85.106 190.400,84.768 190.738,84.389 191.150 M301.189 191.950 L 300.500 192.700 301.250 192.011 C 301.948 191.369,302.092 191.200,301.939 191.200 C 301.906 191.200,301.568 191.538,301.189 191.950 M126.989 192.950 L 126.300 193.700 127.050 193.011 C 127.748 192.369,127.892 192.200,127.739 192.200 C 127.706 192.200,127.368 192.538,126.989 192.950 M275.189 193.350 L 274.500 194.100 275.250 193.411 C 275.948 192.769,276.092 192.600,275.939 192.600 C 275.906 192.600,275.568 192.938,275.189 193.350 M114.189 193.750 L 113.500 194.500 114.250 193.811 C 114.948 193.169,115.092 193.000,114.939 193.000 C 114.906 193.000,114.568 193.338,114.189 193.750 M262.189 194.350 L 261.500 195.100 262.250 194.411 C 262.948 193.769,263.092 193.600,262.939 193.600 C 262.906 193.600,262.568 193.938,262.189 194.350 M92.389 194.950 L 91.700 195.700 92.450 195.011 C 93.148 194.369,93.292 194.200,93.139 194.200 C 93.106 194.200,92.768 194.538,92.389 194.950 M309.291 195.650 L 308.500 196.500 309.350 195.709 C 310.140 194.974,310.292 194.800,310.141 194.800 C 310.108 194.800,309.725 195.183,309.291 195.650 M79.389 195.950 L 78.700 196.700 79.450 196.011 C 80.148 195.369,80.292 195.200,80.139 195.200 C 80.106 195.200,79.768 195.538,79.389 195.950 M345.846 195.800 C 345.846 196.185,345.888 196.343,345.938 196.150 C 345.988 195.958,345.988 195.643,345.938 195.450 C 345.888 195.258,345.846 195.415,345.846 195.800 M296.189 196.750 L 295.500 197.500 296.250 196.811 C 296.948 196.169,297.092 196.000,296.939 196.000 C 296.906 196.000,296.568 196.338,296.189 196.750 M38.050 196.900 C 38.053 197.340,38.094 197.496,38.141 197.248 C 38.189 196.999,38.187 196.639,38.137 196.448 C 38.087 196.256,38.048 196.460,38.050 196.900 M121.789 197.950 L 121.100 198.700 121.850 198.011 C 122.548 197.369,122.692 197.200,122.539 197.200 C 122.506 197.200,122.168 197.538,121.789 197.950 M270.189 198.150 L 269.500 198.900 270.250 198.211 C 270.948 197.569,271.092 197.400,270.939 197.400 C 270.906 197.400,270.568 197.738,270.189 198.150 M108.989 198.750 L 108.300 199.500 109.050 198.811 C 109.748 198.169,109.892 198.000,109.739 198.000 C 109.706 198.000,109.368 198.338,108.989 198.750 M257.189 199.150 L 256.500 199.900 257.250 199.211 C 257.663 198.832,258.000 198.494,258.000 198.461 C 258.000 198.308,257.831 198.452,257.189 199.150 M87.389 199.750 L 86.700 200.500 87.450 199.811 C 88.148 199.169,88.292 199.000,88.139 199.000 C 88.106 199.000,87.768 199.338,87.389 199.750 M304.091 200.650 L 303.300 201.500 304.150 200.709 C 304.940 199.974,305.092 199.800,304.941 199.800 C 304.908 199.800,304.525 200.183,304.091 200.650 M74.389 200.750 L 73.700 201.500 74.450 200.811 C 75.148 200.169,75.292 200.000,75.139 200.000 C 75.106 200.000,74.768 200.338,74.389 200.750 M337.646 201.000 C 337.646 201.385,337.688 201.543,337.738 201.350 C 337.788 201.158,337.788 200.843,337.738 200.650 C 337.688 200.458,337.646 200.615,337.646 201.000 M291.189 201.550 L 290.500 202.300 291.250 201.611 C 291.948 200.969,292.092 200.800,291.939 200.800 C 291.906 200.800,291.568 201.138,291.189 201.550 M200.050 201.938 C 200.243 201.988,200.558 201.988,200.750 201.938 C 200.942 201.888,200.785 201.846,200.400 201.846 C 200.015 201.846,199.858 201.888,200.050 201.938 M116.589 202.950 L 115.900 203.700 116.650 203.011 C 117.348 202.369,117.492 202.200,117.339 202.200 C 117.306 202.200,116.968 202.538,116.589 202.950 M265.189 202.950 L 264.500 203.700 265.250 203.011 C 265.948 202.369,266.092 202.200,265.939 202.200 C 265.906 202.200,265.568 202.538,265.189 202.950 M346.069 204.300 C 346.069 205.180,346.104 205.515,346.147 205.045 C 346.189 204.574,346.188 203.854,346.145 203.445 C 346.102 203.035,346.068 203.420,346.069 204.300 M103.789 203.750 L 103.100 204.500 103.850 203.811 C 104.263 203.432,104.600 203.094,104.600 203.061 C 104.600 202.908,104.431 203.052,103.789 203.750 M252.189 203.950 L 251.500 204.700 252.250 204.011 C 252.663 203.632,253.000 203.294,253.000 203.261 C 253.000 203.108,252.831 203.252,252.189 203.950 M82.291 204.650 L 81.500 205.500 82.350 204.709 C 83.140 203.974,83.292 203.800,83.141 203.800 C 83.108 203.800,82.725 204.183,82.291 204.650 M46.271 206.500 C 46.270 207.490,46.304 207.920,46.346 207.456 C 46.388 206.992,46.389 206.182,46.347 205.656 C 46.306 205.130,46.272 205.510,46.271 206.500 M69.389 205.550 L 68.700 206.300 69.450 205.611 C 69.862 205.232,70.200 204.894,70.200 204.861 C 70.200 204.708,70.031 204.852,69.389 205.550 M298.989 205.550 L 298.300 206.300 299.050 205.611 C 299.748 204.969,299.892 204.800,299.739 204.800 C 299.706 204.800,299.368 205.138,298.989 205.550 M176.454 205.800 C 176.454 206.295,176.493 206.498,176.541 206.250 C 176.589 206.003,176.589 205.597,176.541 205.350 C 176.493 205.103,176.454 205.305,176.454 205.800 M354.730 205.550 C 354.679 205.632,356.001 205.677,357.669 205.648 C 363.337 205.552,363.910 205.482,359.362 205.441 C 356.866 205.418,354.782 205.468,354.730 205.550 M286.189 206.350 L 285.500 207.100 286.250 206.411 C 286.663 206.032,287.000 205.694,287.000 205.661 C 287.000 205.508,286.831 205.652,286.189 206.350 M168.254 207.200 C 168.254 207.695,168.293 207.898,168.341 207.650 C 168.389 207.403,168.389 206.998,168.341 206.750 C 168.293 206.503,168.254 206.705,168.254 207.200 M111.589 207.750 L 110.900 208.500 111.650 207.811 C 112.348 207.169,112.492 207.000,112.339 207.000 C 112.306 207.000,111.968 207.338,111.589 207.750 M260.087 207.850 L 259.500 208.500 260.150 207.913 C 260.756 207.365,260.892 207.200,260.737 207.200 C 260.703 207.200,260.410 207.493,260.087 207.850 M176.457 208.500 C 176.459 209.050,176.498 209.251,176.544 208.947 C 176.589 208.643,176.588 208.193,176.541 207.947 C 176.493 207.701,176.456 207.950,176.457 208.500 M98.789 208.550 L 98.100 209.300 98.850 208.611 C 99.548 207.969,99.692 207.800,99.539 207.800 C 99.506 207.800,99.168 208.138,98.789 208.550 M247.189 208.750 L 246.500 209.500 247.250 208.811 C 247.663 208.432,248.000 208.094,248.000 208.061 C 248.000 207.908,247.831 208.052,247.189 208.750 M77.189 209.550 L 76.500 210.300 77.250 209.611 C 77.948 208.969,78.092 208.800,77.939 208.800 C 77.906 208.800,77.568 209.138,77.189 209.550 M168.250 209.900 C 168.253 210.340,168.294 210.496,168.341 210.248 C 168.389 209.999,168.387 209.639,168.337 209.448 C 168.287 209.256,168.248 209.460,168.250 209.900 M64.291 210.450 L 63.500 211.300 64.350 210.509 C 65.140 209.774,65.292 209.600,65.141 209.600 C 65.108 209.600,64.725 209.982,64.291 210.450 M293.989 210.350 L 293.300 211.100 294.050 210.411 C 294.748 209.769,294.892 209.600,294.739 209.600 C 294.706 209.600,294.368 209.938,293.989 210.350 M46.269 211.900 C 46.269 212.780,46.304 213.115,46.347 212.645 C 46.389 212.174,46.388 211.454,46.345 211.045 C 46.302 210.635,46.268 211.020,46.269 211.900 M281.091 211.250 L 280.300 212.100 281.150 211.309 C 281.940 210.574,282.092 210.400,281.941 210.400 C 281.908 210.400,281.525 210.782,281.091 211.250 M106.389 212.750 L 105.700 213.500 106.450 212.811 C 107.148 212.169,107.292 212.000,107.139 212.000 C 107.106 212.000,106.768 212.338,106.389 212.750 M254.989 212.750 L 254.300 213.500 255.050 212.811 C 255.463 212.432,255.800 212.094,255.800 212.061 C 255.800 211.908,255.631 212.052,254.989 212.750 M38.046 212.800 C 38.046 213.185,38.088 213.343,38.138 213.150 C 38.188 212.957,38.188 212.643,38.138 212.450 C 38.088 212.257,38.046 212.415,38.046 212.800 M337.650 213.100 C 337.653 213.540,337.694 213.696,337.741 213.448 C 337.789 213.199,337.787 212.839,337.737 212.648 C 337.687 212.456,337.648 212.660,337.650 213.100 M93.691 213.450 L 92.900 214.300 93.750 213.509 C 94.540 212.774,94.692 212.600,94.541 212.600 C 94.508 212.600,94.125 212.982,93.691 213.450 M241.789 213.950 L 241.100 214.700 241.850 214.011 C 242.548 213.369,242.692 213.200,242.539 213.200 C 242.506 213.200,242.168 213.538,241.789 213.950 M345.846 214.000 C 345.846 214.385,345.888 214.543,345.938 214.350 C 345.988 214.157,345.988 213.843,345.938 213.650 C 345.888 213.457,345.846 213.615,345.846 214.000 M72.189 214.350 L 71.500 215.100 72.250 214.411 C 72.948 213.769,73.092 213.600,72.939 213.600 C 72.906 213.600,72.568 213.938,72.189 214.350 M288.789 215.350 L 288.100 216.100 288.850 215.411 C 289.262 215.032,289.600 214.694,289.600 214.661 C 289.600 214.508,289.431 214.652,288.789 215.350 M58.789 215.750 L 58.100 216.500 58.850 215.811 C 59.548 215.169,59.692 215.000,59.539 215.000 C 59.506 215.000,59.168 215.338,58.789 215.750 M275.989 216.150 L 275.300 216.900 276.050 216.211 C 276.748 215.569,276.892 215.400,276.739 215.400 C 276.706 215.400,276.368 215.738,275.989 216.150 M249.989 217.550 L 249.300 218.300 250.050 217.611 C 250.463 217.232,250.800 216.894,250.800 216.861 C 250.800 216.708,250.631 216.852,249.989 217.550 M38.246 217.600 C 38.246 217.985,38.288 218.143,38.338 217.950 C 38.388 217.757,38.388 217.443,38.338 217.250 C 38.288 217.058,38.246 217.215,38.246 217.600 M101.189 217.750 L 100.500 218.500 101.250 217.811 C 101.948 217.169,102.092 217.000,101.939 217.000 C 101.906 217.000,101.568 217.338,101.189 217.750 M88.589 218.350 L 87.900 219.100 88.650 218.411 C 89.348 217.769,89.492 217.600,89.339 217.600 C 89.306 217.600,88.968 217.938,88.589 218.350 M67.189 219.150 L 66.500 219.900 67.250 219.211 C 67.948 218.569,68.092 218.400,67.939 218.400 C 67.906 218.400,67.568 218.738,67.189 219.150 M283.789 220.150 L 283.100 220.900 283.850 220.211 C 284.262 219.832,284.600 219.494,284.600 219.461 C 284.600 219.308,284.431 219.452,283.789 220.150 M270.891 221.050 L 270.100 221.900 270.950 221.109 C 271.740 220.374,271.892 220.200,271.741 220.200 C 271.708 220.200,271.325 220.582,270.891 221.050 M244.891 222.450 L 244.100 223.300 244.950 222.509 C 245.740 221.774,245.892 221.600,245.741 221.600 C 245.708 221.600,245.325 221.982,244.891 222.450 M96.189 222.550 L 95.500 223.300 96.250 222.611 C 96.948 221.969,97.092 221.800,96.939 221.800 C 96.906 221.800,96.568 222.138,96.189 222.550 M83.589 223.150 L 82.900 223.900 83.650 223.211 C 84.348 222.569,84.492 222.400,84.339 222.400 C 84.306 222.400,83.968 222.738,83.589 223.150 M61.989 224.150 L 61.300 224.900 62.050 224.211 C 62.748 223.569,62.892 223.400,62.739 223.400 C 62.706 223.400,62.368 223.738,61.989 224.150 M278.789 224.950 L 278.100 225.700 278.850 225.011 C 279.548 224.369,279.692 224.200,279.539 224.200 C 279.506 224.200,279.168 224.538,278.789 224.950 M265.789 225.950 L 265.100 226.700 265.850 226.011 C 266.548 225.369,266.692 225.200,266.539 225.200 C 266.506 225.200,266.168 225.538,265.789 225.950 M90.989 227.550 L 90.300 228.300 91.050 227.611 C 91.748 226.969,91.892 226.800,91.739 226.800 C 91.706 226.800,91.368 227.138,90.989 227.550 M78.389 228.150 L 77.700 228.900 78.450 228.211 C 79.148 227.569,79.292 227.400,79.139 227.400 C 79.106 227.400,78.768 227.738,78.389 228.150 M273.589 229.950 L 272.900 230.700 273.650 230.011 C 274.063 229.632,274.400 229.294,274.400 229.261 C 274.400 229.108,274.231 229.252,273.589 229.950 M260.789 230.750 L 260.100 231.500 260.850 230.811 C 261.262 230.432,261.600 230.094,261.600 230.061 C 261.600 229.908,261.431 230.052,260.789 230.750 M85.891 232.450 L 85.100 233.300 85.950 232.509 C 86.740 231.774,86.892 231.600,86.741 231.600 C 86.708 231.600,86.325 231.982,85.891 232.450 M73.389 232.950 L 72.700 233.700 73.450 233.011 C 74.148 232.369,74.292 232.200,74.139 232.200 C 74.106 232.200,73.768 232.538,73.389 232.950 M268.389 234.950 L 267.700 235.700 268.450 235.011 C 268.863 234.632,269.200 234.294,269.200 234.261 C 269.200 234.108,269.031 234.252,268.389 234.950 M255.589 235.750 L 254.900 236.500 255.650 235.811 C 256.348 235.169,256.492 235.000,256.339 235.000 C 256.306 235.000,255.968 235.338,255.589 235.750 M80.789 237.350 L 80.100 238.100 80.850 237.411 C 81.548 236.769,81.692 236.600,81.539 236.600 C 81.506 236.600,81.168 236.938,80.789 237.350 M68.291 237.850 L 67.500 238.700 68.350 237.909 C 69.140 237.174,69.292 237.000,69.141 237.000 C 69.108 237.000,68.725 237.382,68.291 237.850 M228.000 238.463 C 228.000 238.497,228.293 238.790,228.650 239.113 L 229.300 239.700 228.713 239.050 C 228.165 238.444,228.000 238.308,228.000 238.463 M263.189 239.950 L 262.500 240.700 263.250 240.011 C 263.663 239.632,264.000 239.294,264.000 239.261 C 264.000 239.108,263.831 239.252,263.189 239.950 M250.589 240.550 L 249.900 241.300 250.650 240.611 C 251.063 240.232,251.400 239.894,251.400 239.861 C 251.400 239.708,251.231 239.852,250.589 240.550 M75.589 242.350 L 74.900 243.100 75.650 242.411 C 76.063 242.032,76.400 241.694,76.400 241.661 C 76.400 241.508,76.231 241.652,75.589 242.350 M63.189 242.750 L 62.500 243.500 63.250 242.811 C 63.948 242.169,64.092 242.000,63.939 242.000 C 63.906 242.000,63.568 242.338,63.189 242.750 M258.091 244.850 L 257.300 245.700 258.150 244.909 C 258.940 244.174,259.092 244.000,258.941 244.000 C 258.908 244.000,258.525 244.382,258.091 244.850 M70.491 247.250 L 69.700 248.100 70.550 247.309 C 71.017 246.875,71.400 246.492,71.400 246.459 C 71.400 246.308,71.226 246.460,70.491 247.250 M328.287 250.250 L 327.700 250.900 328.350 250.313 C 328.956 249.765,329.092 249.600,328.937 249.600 C 328.903 249.600,328.610 249.893,328.287 250.250 M334.087 256.050 L 333.500 256.700 334.150 256.113 C 334.756 255.565,334.892 255.400,334.737 255.400 C 334.703 255.400,334.410 255.693,334.087 256.050 M101.155 259.147 C 101.626 259.189,102.346 259.188,102.755 259.145 C 103.165 259.102,102.780 259.068,101.900 259.069 C 101.020 259.069,100.685 259.104,101.155 259.147 M281.150 259.141 C 281.397 259.189,281.803 259.189,282.050 259.141 C 282.298 259.093,282.095 259.054,281.600 259.054 C 281.105 259.054,280.903 259.093,281.150 259.141 M332.400 261.100 C 331.914 261.595,331.562 262.000,331.617 262.000 C 331.672 262.000,332.114 261.595,332.600 261.100 C 333.086 260.605,333.438 260.200,333.383 260.200 C 333.328 260.200,332.886 260.605,332.400 261.100 M98.450 268.938 C 98.642 268.988,98.958 268.988,99.150 268.938 C 99.343 268.888,99.185 268.846,98.800 268.846 C 98.415 268.846,98.258 268.888,98.450 268.938 M90.550 269.148 C 91.238 269.187,92.363 269.187,93.050 269.148 C 93.738 269.109,93.175 269.077,91.800 269.077 C 90.425 269.077,89.863 269.109,90.550 269.148 M290.354 269.145 C 290.713 269.189,291.253 269.189,291.554 269.143 C 291.854 269.097,291.560 269.061,290.900 269.062 C 290.240 269.063,289.994 269.100,290.354 269.145 M292.750 269.145 C 293.108 269.189,293.693 269.189,294.050 269.145 C 294.407 269.100,294.115 269.064,293.400 269.064 C 292.685 269.064,292.393 269.100,292.750 269.145 M93.950 275.741 C 94.198 275.789,94.603 275.789,94.850 275.741 C 95.098 275.693,94.895 275.654,94.400 275.654 C 93.905 275.654,93.703 275.693,93.950 275.741 M105.053 275.744 C 105.357 275.789,105.807 275.788,106.053 275.741 C 106.299 275.693,106.050 275.656,105.500 275.657 C 104.950 275.659,104.749 275.698,105.053 275.744 M290.850 276.738 C 291.043 276.788,291.358 276.788,291.550 276.738 C 291.743 276.688,291.585 276.646,291.200 276.646 C 290.815 276.646,290.657 276.688,290.850 276.738 " stroke="none" fill="#848484" fill-rule="evenodd"></path><path id="path5" d="M181.550 146.745 C 181.908 146.789,182.493 146.789,182.850 146.745 C 183.208 146.700,182.915 146.664,182.200 146.664 C 181.485 146.664,181.192 146.700,181.550 146.745 M207.754 146.945 C 208.113 146.989,208.653 146.989,208.954 146.943 C 209.254 146.897,208.960 146.861,208.300 146.862 C 207.640 146.863,207.394 146.900,207.754 146.945 M234.354 147.145 C 234.713 147.189,235.253 147.189,235.554 147.143 C 235.854 147.097,235.560 147.061,234.900 147.062 C 234.240 147.063,233.994 147.100,234.354 147.145 M260.850 147.343 C 261.153 147.389,261.647 147.389,261.950 147.343 C 262.252 147.297,262.005 147.260,261.400 147.260 C 260.795 147.260,260.548 147.297,260.850 147.343 M296.352 147.341 C 296.601 147.389,296.961 147.387,297.152 147.337 C 297.344 147.287,297.140 147.248,296.700 147.250 C 296.260 147.253,296.104 147.294,296.352 147.341 M99.952 153.341 C 100.201 153.389,100.561 153.387,100.752 153.337 C 100.944 153.287,100.740 153.248,100.300 153.250 C 99.860 153.253,99.704 153.294,99.952 153.341 M106.552 153.341 C 106.801 153.389,107.161 153.387,107.352 153.337 C 107.544 153.287,107.340 153.248,106.900 153.250 C 106.460 153.253,106.304 153.294,106.552 153.341 M276.750 153.341 C 276.998 153.389,277.403 153.389,277.650 153.341 C 277.897 153.293,277.695 153.254,277.200 153.254 C 276.705 153.254,276.502 153.293,276.750 153.341 M283.352 153.341 C 283.601 153.389,283.961 153.387,284.152 153.337 C 284.344 153.287,284.140 153.248,283.700 153.250 C 283.260 153.253,283.104 153.294,283.352 153.341 M70.050 154.138 C 70.242 154.188,70.558 154.188,70.750 154.138 C 70.942 154.088,70.785 154.046,70.400 154.046 C 70.015 154.046,69.858 154.088,70.050 154.138 M313.250 154.138 C 313.443 154.188,313.757 154.188,313.950 154.138 C 314.143 154.088,313.985 154.046,313.600 154.046 C 313.215 154.046,313.058 154.088,313.250 154.138 " stroke="none" fill="#747474" fill-rule="evenodd"></path><path id="path6" d="M186.952 146.741 C 187.201 146.789,187.561 146.787,187.752 146.737 C 187.944 146.687,187.740 146.648,187.300 146.650 C 186.860 146.653,186.704 146.694,186.952 146.741 M212.750 146.941 C 212.998 146.989,213.403 146.989,213.650 146.941 C 213.898 146.893,213.695 146.854,213.200 146.854 C 212.705 146.854,212.503 146.893,212.750 146.941 M239.253 147.144 C 239.557 147.189,240.007 147.188,240.253 147.141 C 240.499 147.093,240.250 147.056,239.700 147.057 C 239.150 147.059,238.949 147.098,239.253 147.144 M265.853 147.344 C 266.157 147.389,266.607 147.388,266.853 147.341 C 267.099 147.293,266.850 147.256,266.300 147.257 C 265.750 147.259,265.549 147.298,265.853 147.344 M301.754 147.345 C 302.113 147.389,302.653 147.389,302.954 147.343 C 303.254 147.297,302.960 147.261,302.300 147.262 C 301.640 147.263,301.394 147.300,301.754 147.345 M103.250 153.338 C 103.442 153.388,103.758 153.388,103.950 153.338 C 104.142 153.288,103.985 153.246,103.600 153.246 C 103.215 153.246,103.058 153.288,103.250 153.338 M280.050 153.338 C 280.243 153.388,280.558 153.388,280.750 153.338 C 280.943 153.288,280.785 153.246,280.400 153.246 C 280.015 153.246,279.858 153.288,280.050 153.338 M80.450 162.350 C 86.693 162.379,96.908 162.379,103.150 162.350 C 109.393 162.321,104.285 162.297,91.800 162.297 C 79.315 162.297,74.208 162.321,80.450 162.350 M170.866 162.350 C 182.617 162.378,201.787 162.378,213.466 162.350 C 225.145 162.321,215.530 162.298,192.100 162.298 C 168.670 162.298,159.115 162.321,170.866 162.350 M277.761 162.350 C 291.000 162.389,295.387 162.460,295.280 162.632 C 295.192 162.774,295.226 162.807,295.369 162.719 C 296.136 162.245,294.553 162.203,277.850 162.249 L 260.100 162.298 277.761 162.350 M309.350 162.349 C 310.368 162.385,312.033 162.385,313.050 162.349 C 314.068 162.313,313.235 162.283,311.200 162.283 C 309.165 162.283,308.332 162.313,309.350 162.349 M27.563 192.950 C 29.578 192.982,32.818 192.982,34.763 192.950 C 36.708 192.917,35.060 192.890,31.100 192.890 C 27.140 192.890,25.548 192.917,27.563 192.950 M349.750 192.950 C 351.978 192.982,355.623 192.982,357.850 192.950 C 360.078 192.918,358.255 192.891,353.800 192.891 C 349.345 192.891,347.523 192.918,349.750 192.950 M337.846 205.800 C 337.846 206.185,337.888 206.343,337.938 206.150 C 337.988 205.957,337.988 205.643,337.938 205.450 C 337.888 205.257,337.846 205.415,337.846 205.800 M337.846 208.200 C 337.846 208.585,337.888 208.743,337.938 208.550 C 337.988 208.357,337.988 208.043,337.938 207.850 C 337.888 207.657,337.846 207.815,337.846 208.200 M89.460 259.349 C 90.539 259.385,92.249 259.385,93.260 259.349 C 94.272 259.313,93.390 259.283,91.300 259.283 C 89.210 259.284,88.382 259.313,89.460 259.349 M289.650 259.349 C 290.943 259.384,293.058 259.384,294.350 259.349 C 295.643 259.315,294.585 259.286,292.000 259.286 C 289.415 259.286,288.358 259.315,289.650 259.349 M98.554 275.945 C 98.913 275.989,99.453 275.989,99.754 275.943 C 100.054 275.897,99.760 275.861,99.100 275.862 C 98.440 275.863,98.194 275.900,98.554 275.945 " stroke="none" fill="#3c3c3c" fill-rule="evenodd"></path><path id="path7" d="M214.250 146.938 C 214.443 146.988,214.757 146.988,214.950 146.938 C 215.143 146.888,214.985 146.846,214.600 146.846 C 214.215 146.846,214.058 146.888,214.250 146.938 " stroke="none" fill="#343434" fill-rule="evenodd"></path><path id="path8" d="M189.253 146.744 C 189.557 146.789,190.007 146.788,190.253 146.741 C 190.499 146.693,190.250 146.656,189.700 146.657 C 189.150 146.659,188.949 146.698,189.253 146.744 M215.750 146.945 C 216.107 146.989,216.693 146.989,217.050 146.945 C 217.407 146.900,217.115 146.864,216.400 146.864 C 215.685 146.864,215.393 146.900,215.750 146.945 M242.146 147.144 C 242.501 147.189,243.131 147.189,243.546 147.146 C 243.960 147.103,243.670 147.067,242.900 147.066 C 242.130 147.065,241.790 147.100,242.146 147.144 M268.750 147.345 C 269.108 147.389,269.693 147.389,270.050 147.345 C 270.407 147.300,270.115 147.264,269.400 147.264 C 268.685 147.264,268.393 147.300,268.750 147.345 M291.150 147.341 C 291.397 147.389,291.803 147.389,292.050 147.341 C 292.298 147.293,292.095 147.254,291.600 147.254 C 291.105 147.254,290.903 147.293,291.150 147.341 M96.287 179.850 L 95.700 180.500 96.350 179.913 C 96.956 179.365,97.092 179.200,96.937 179.200 C 96.903 179.200,96.610 179.493,96.287 179.850 M119.887 199.650 L 119.300 200.300 119.950 199.713 C 120.308 199.390,120.600 199.097,120.600 199.063 C 120.600 198.908,120.435 199.044,119.887 199.650 M337.850 203.900 C 337.853 204.340,337.894 204.496,337.941 204.248 C 337.989 203.999,337.987 203.639,337.937 203.448 C 337.887 203.256,337.848 203.460,337.850 203.900 M38.050 207.500 C 38.053 207.940,38.094 208.096,38.141 207.848 C 38.189 207.599,38.187 207.239,38.137 207.048 C 38.087 206.856,38.048 207.060,38.050 207.500 M345.846 210.600 C 345.846 210.985,345.888 211.143,345.938 210.950 C 345.988 210.757,345.988 210.443,345.938 210.250 C 345.888 210.058,345.846 210.215,345.846 210.600 M101.050 275.938 C 101.243 275.988,101.558 275.988,101.750 275.938 C 101.942 275.888,101.785 275.846,101.400 275.846 C 101.015 275.846,100.858 275.888,101.050 275.938 M284.450 276.938 C 284.643 276.988,284.957 276.988,285.150 276.938 C 285.343 276.888,285.185 276.846,284.800 276.846 C 284.415 276.846,284.257 276.888,284.450 276.938 " stroke="none" fill="#282828" fill-rule="evenodd"></path></g></svg>